<?xml version="1.0" encoding="utf-8"?>
<!-- Generator: Adobe Illustrator 22.1.0, SVG Export Plug-In . SVG Version: 6.00 Build 0)  -->
<svg version="1.1" id="Layer_1" xmlns="http://www.w3.org/2000/svg" xmlns:xlink="http://www.w3.org/1999/xlink" x="0px" y="0px"
	 viewBox="0 0 64 64" style="enable-background:new 0 0 64 64;" xml:space="preserve">
<style type="text/css">
	.st0{fill:#008000;}
	.st1{fill:#000080;}
</style>
<path class="st0" d="M8.5,9.4v5.1V23l1.5-1.5V10.9h10.9l1.5-1.5H8.5z M41.6,9.4l1.5,1.5H54v10.5l1.5,1.5v-8.5V9.4H41.6z M8.5,41.2
	v8.5v4.9h13.9l-1.5-1.5H10V42.5L8.5,41.2z M55.5,41.2L54,42.7v10.5H43.1l-1.5,1.3h8.7h5.3V41.2L55.5,41.2z"/>
<path class="st1" d="M60.4,28.4l-7.2-7.2l-3.6,3.6l-7,7.2l3.6,3.6l3.6,3.6L32,56.8l-3.6-3.6l3.6-3.6l3.6-3.6L32,42.7l-3.6,3.6l0,0
	l-3.6,3.6l-3.6-3.6l3.6-3.6l0,0l3.6-3.6l-3.6-3.6l-3.6,3.6l0,0l-3.6,3.6l-3.6-3.6l7.2-7.2l-3.6-3.6l-7.2,7.2L7.2,32l10.7-10.7
	l21.3,21.3l3.6-3.6L21.3,17.7l3.6-3.6l14.3,14.3l3.4-3.4l7.3-7.3l-3.6-3.6l-7.2,7.2l-3.6-3.6l7.2-7.2L39.2,7l-3.6-3.6L32,0l-3.6,3.6
	L14.3,17.7L3.6,28.4L0,32l28.4,28.4L32,64l21.3-21.3l3.6-3.6l3.6-3.6L64,32L60.4,28.4z M32,7.2l3.6,3.6L32,14.3l0,0l-3.6-3.6L32,7.2
	z M53.3,35.6L49.9,32l3.6-3.6L57,32L53.3,35.6z"/>
</svg>
